<svg width="64" height="64" viewBox="0 0 64 64" fill="none" xmlns="http://www.w3.org/2000/svg">
<path d="M0 44C0 50.075 3.373 55 10 55H54C60.627 55 64 50.075 64 44V33H0V44Z" fill="#29B473"/>
<path d="M54 11H10C3.373 11 0 15.925 0 22V39H64V22C64 15.925 60.627 11 54 11Z" fill="#CB0000"/>
<path d="M10 11C3.373 11 0 15.925 0 22V44C0 50.075 3.373 55 10 55H14V11H10Z" fill="#E6E7E8"/>
<path fill-rule="evenodd" clip-rule="evenodd" d="M12.1095 32.8127C12.1095 32.9317 12.0995 33.0527 12.1125 33.1727C12.1275 33.3237 12.0305 33.3587 11.8285 33.3587C11.6265 33.3607 11.5415 33.3187 11.5475 33.1707C11.5625 32.9296 11.5625 32.6878 11.5475 32.4467C11.5385 32.2907 11.6325 32.2627 11.8315 32.2607C12.0325 32.2607 12.1275 32.2977 12.1125 32.4487C12.1005 32.5697 12.1095 32.6877 12.1095 32.8127Z" fill="#CD0808"/>
<path fill-rule="evenodd" clip-rule="evenodd" d="M3.27162 51.0598C3.27162 51.1608 3.26562 51.2628 3.27562 51.3638C3.28862 51.5078 3.28562 51.6078 2.99262 51.6058C2.72462 51.5998 2.72262 51.5108 2.72762 51.3808C2.73362 51.1668 2.73362 50.9548 2.72762 50.7418C2.72462 50.6098 2.72462 50.5148 2.99262 50.5098C3.28862 50.5078 3.28862 50.6138 3.27562 50.7578C3.27062 50.8588 3.27162 50.9598 3.27162 51.0598" fill="#CC0303"/>
<path fill-rule="evenodd" clip-rule="evenodd" d="M2.72966 41.1801C2.72966 41.0541 2.73866 40.9341 2.72666 40.8131C2.71166 40.6691 2.78566 40.6201 3.00266 40.6201C3.20766 40.6201 3.28666 40.6641 3.27366 40.8111C3.25766 41.0421 3.26366 41.2791 3.27366 41.5111C3.28066 41.6371 3.26766 41.7181 3.02466 41.7161C2.80266 41.7141 2.69566 41.6791 2.72566 41.5151C2.74166 41.4041 2.72966 41.2911 2.72966 41.1801V41.1801ZM7.68366 41.1801C7.68366 41.2891 7.67466 41.4011 7.68966 41.5111C7.70766 41.6621 7.63866 41.7161 7.40566 41.7181C7.13766 41.7221 7.13366 41.6311 7.13466 41.4981C7.14816 41.2767 7.14816 41.0546 7.13466 40.8331C7.12666 40.6861 7.17366 40.6191 7.41966 40.6191C7.68366 40.6191 7.69166 40.7121 7.68666 40.8451C7.67766 40.9571 7.68366 41.0671 7.68366 41.1801" fill="#CC0202"/>
<path fill-rule="evenodd" clip-rule="evenodd" d="M12.1093 41.1801C12.1093 41.2891 12.0963 41.4011 12.1123 41.5111C12.1333 41.6661 12.0493 41.7161 11.8193 41.7181C11.5613 41.7201 11.5443 41.6351 11.5493 41.4961C11.5603 41.2759 11.5593 41.0552 11.5463 40.8351C11.5373 40.6791 11.6003 40.6211 11.8363 40.6211C12.0993 40.6191 12.1173 40.7101 12.1113 40.8471C12.1003 40.9591 12.1093 41.0671 12.1093 41.1801ZM12.1093 45.8341C12.1093 45.9551 12.0993 46.0751 12.1123 46.1931C12.1303 46.3541 12.0323 46.4031 11.8063 46.4011C11.5823 46.3981 11.5433 46.3301 11.5493 46.1981C11.5633 45.9673 11.5623 45.7358 11.5463 45.5051C11.5313 45.3351 11.6353 45.3091 11.8483 45.3071C12.0703 45.3041 12.1263 45.3661 12.1123 45.5011C12.1003 45.6111 12.1093 45.7231 12.1093 45.8341Z" fill="#CC0606"/>
<path fill-rule="evenodd" clip-rule="evenodd" d="M7.13758 45.8539C7.14058 45.7319 7.15258 45.6079 7.13458 45.4869C7.10958 45.3239 7.23058 45.3129 7.41958 45.3089C7.63858 45.3039 7.69758 45.3579 7.68958 45.4989C7.67608 45.7323 7.67608 45.9664 7.68958 46.1999C7.69258 46.3369 7.64858 46.3979 7.42558 46.4029C7.17758 46.4049 7.11658 46.3369 7.13458 46.1869C7.14858 46.0769 7.13758 45.9649 7.13758 45.8539V45.8539ZM2.72958 45.8519C2.72958 45.7419 2.74158 45.6289 2.72658 45.5179C2.70558 45.3659 2.76458 45.3089 3.01058 45.3039C3.27658 45.2999 3.28158 45.3959 3.27458 45.5309C3.26457 45.7534 3.26457 45.9763 3.27458 46.1989C3.28158 46.3329 3.24558 46.3989 3.01658 46.4039C2.77058 46.4059 2.70958 46.3409 2.72658 46.1879C2.73858 46.0749 2.72958 45.9649 2.72958 45.8519V45.8519ZM3.27058 32.7959C3.27058 32.9059 3.26858 33.0179 3.27458 33.1309C3.28158 33.2619 3.28758 33.3619 3.01058 33.3599C2.76758 33.3579 2.71558 33.2939 2.72658 33.1439C2.73907 32.921 2.73807 32.6976 2.72358 32.4749C2.71558 32.3239 2.76758 32.2629 3.01458 32.2609C3.28658 32.2569 3.28158 32.3599 3.27458 32.4899C3.26958 32.5909 3.27058 32.6929 3.27058 32.7959Z" fill="#CC0202"/>
<path fill-rule="evenodd" clip-rule="evenodd" d="M2.72984 19.7639C2.72984 19.6439 2.73884 19.5209 2.72684 19.4019C2.70984 19.2479 2.81584 19.2229 3.01084 19.2209C3.23084 19.2169 3.28384 19.2759 3.27484 19.4139C3.26084 19.6447 3.26084 19.8761 3.27484 20.1069C3.28784 20.2559 3.23384 20.3169 2.99484 20.3189C2.72984 20.3189 2.71684 20.2319 2.72684 20.0959C2.73584 19.9859 2.72984 19.8749 2.72984 19.7639" fill="#CB0101"/>
<path fill-rule="evenodd" clip-rule="evenodd" d="M11.5508 24.4089C11.5508 24.3059 11.5628 24.2039 11.5478 24.1029C11.5178 23.9369 11.6298 23.9039 11.8468 23.9019C12.0748 23.8999 12.1168 23.9649 12.1108 24.1009C12.0978 24.3341 12.0978 24.5677 12.1108 24.8009C12.1168 24.9469 12.0408 24.9949 11.8298 24.9929C11.6248 24.9929 11.5338 24.9549 11.5488 24.8049C11.5598 24.6749 11.5508 24.5409 11.5508 24.4089" fill="#CC0606"/>
<path fill-rule="evenodd" clip-rule="evenodd" d="M7.14169 24.4267C7.14169 24.3167 7.15069 24.2037 7.13569 24.0957C7.12169 23.9587 7.17469 23.9027 7.39769 23.9027C7.62269 23.9027 7.70569 23.9457 7.69069 24.1037C7.67269 24.3354 7.67269 24.5681 7.69069 24.7997C7.70269 24.9667 7.59869 24.9937 7.38269 24.9977C7.13569 25.0007 7.13369 24.9117 7.13869 24.7887C7.14469 24.6687 7.14169 24.5497 7.14169 24.4267V24.4267ZM3.27169 24.4467C3.27169 24.5497 3.26969 24.6497 3.27569 24.7507C3.28569 24.8927 3.28869 25.0007 2.99269 24.9977C2.71969 24.9937 2.72469 24.8957 2.72769 24.7657C2.73069 24.5547 2.73369 24.3397 2.72769 24.1267C2.72269 23.9927 2.72269 23.8977 2.99269 23.9017C3.23169 23.9037 3.29769 23.9607 3.27569 24.1107C3.26069 24.2237 3.27169 24.3337 3.27169 24.4467V24.4467ZM7.68469 19.7867C7.68469 19.8977 7.67569 20.0117 7.69069 20.1217C7.70569 20.2627 7.64269 20.3147 7.42669 20.3187C7.18669 20.3207 7.12369 20.2617 7.13569 20.1067C7.15219 19.884 7.15219 19.6604 7.13569 19.4377C7.12969 19.2917 7.17269 19.2197 7.42069 19.2197C7.69269 19.2197 7.69269 19.3197 7.68769 19.4507C7.67869 19.5627 7.68469 19.6737 7.68469 19.7867Z" fill="#CC0202"/>
<path fill-rule="evenodd" clip-rule="evenodd" d="M12.1097 19.7848C12.1097 19.8948 12.0997 20.0058 12.1127 20.1178C12.1277 20.2528 12.0797 20.3188 11.8517 20.3168C11.6417 20.3128 11.5327 20.2898 11.5437 20.1178C11.5667 19.8768 11.5617 19.6338 11.5497 19.3918C11.5437 19.2588 11.6197 19.2178 11.8067 19.2198C11.9877 19.2198 12.1237 19.2288 12.1127 19.3918C12.1007 19.5218 12.1097 19.6528 12.1097 19.7848Z" fill="#CC0505"/>
<path fill-rule="evenodd" clip-rule="evenodd" d="M12.1092 51.08C12.1092 51.191 12.0992 51.304 12.1122 51.414C12.1272 51.551 12.0702 51.613 11.8482 51.613C11.6312 51.611 11.5322 51.576 11.5462 51.408C11.5627 51.1857 11.5627 50.9624 11.5462 50.74C11.5402 50.595 11.5852 50.521 11.8302 50.519C12.0842 50.519 12.1232 50.603 12.1112 50.744C12.1002 50.857 12.1092 50.969 12.1092 51.08" fill="#CD0606"/>
<path fill-rule="evenodd" clip-rule="evenodd" d="M2.73088 14.5207C2.73088 14.4107 2.74288 14.2977 2.72788 14.1867C2.70188 14.0227 2.83388 14.0137 3.01788 14.0137C3.18988 14.0137 3.28588 14.0367 3.27588 14.1767C3.25988 14.4284 3.25988 14.6809 3.27588 14.9327C3.28588 15.0817 3.17788 15.0977 3.01188 15.0937C2.85888 15.0897 2.71288 15.1017 2.72788 14.9447C2.73988 14.8027 2.73088 14.6607 2.73088 14.5207" fill="#CB0000"/>
<path fill-rule="evenodd" clip-rule="evenodd" d="M12.1102 14.5488C12.1102 14.6698 12.0972 14.7908 12.1132 14.9098C12.1312 15.0628 12.0212 15.0968 11.8292 15.0968C11.6212 15.0988 11.5422 15.0538 11.5512 14.9068C11.5667 14.6757 11.5657 14.4438 11.5482 14.2128C11.5332 14.0408 11.6482 14.0158 11.8562 14.0138C12.0862 14.0098 12.1232 14.0878 12.1142 14.2168C12.1012 14.3238 12.1102 14.4378 12.1102 14.5488" fill="#CC0404"/>
<path fill-rule="evenodd" clip-rule="evenodd" d="M3.27149 28.7868C3.25149 28.8808 3.33649 29.0058 3.22449 29.0968C3.13649 29.1658 2.97849 29.1248 2.85249 29.1208C2.73049 29.1168 2.73049 29.0468 2.73049 28.9878C2.72749 28.8748 2.73049 28.7628 2.72749 28.6518C2.72249 28.5168 2.69449 28.4028 3.00349 28.4028C3.30449 28.4028 3.28449 28.5148 3.27449 28.6518C3.27049 28.6898 3.27149 28.7318 3.27149 28.7868" fill="#CC0505"/>
<path fill-rule="evenodd" clip-rule="evenodd" d="M11.5503 36.859C11.5503 36.778 11.5533 36.698 11.5503 36.618C11.5443 36.48 11.6843 36.489 11.8173 36.489C11.9463 36.489 12.0973 36.472 12.1003 36.607C12.1103 36.727 12.1043 36.847 12.1103 36.969C12.1163 37.104 12.1363 37.218 11.8353 37.218C11.5573 37.216 11.5273 37.126 11.5483 36.979C11.5533 36.938 11.5473 36.897 11.5503 36.859" fill="#CD0909"/>
<path fill-rule="evenodd" clip-rule="evenodd" d="M3.27023 36.852C3.23323 37 3.42923 37.26 2.91923 37.213C2.76223 37.201 2.72223 37.1599 2.72723 37.0649C2.73173 36.9533 2.73173 36.8416 2.72723 36.7299C2.71623 36.5839 2.72723 36.481 3.01723 36.484C3.29623 36.488 3.28223 36.592 3.27123 36.719C3.26923 36.761 3.27023 36.799 3.27023 36.852" fill="#CC0404"/>
<path fill-rule="evenodd" clip-rule="evenodd" d="M11.5473 28.7167C11.5893 28.6287 11.4643 28.4997 11.6293 28.4207C11.8283 28.3277 12.0973 28.4377 12.1073 28.6047C12.1133 28.6957 12.1043 28.7877 12.1103 28.8767C12.1163 29.0147 12.1313 29.1347 11.8293 29.1347C11.5333 29.1347 11.5363 29.0247 11.5483 28.8837C11.5533 28.8317 11.5473 28.7797 11.5473 28.7167" fill="#CD0A0A"/>
<path fill-rule="evenodd" clip-rule="evenodd" d="M11.9761 16.8979C11.9641 16.8879 11.9191 16.8919 11.8901 16.8959C11.5721 16.9359 11.5261 16.8179 11.5461 16.6339C11.5641 16.4719 11.5491 16.3089 11.5491 16.1459C11.5521 16.0579 11.5341 15.9699 11.3641 15.9939C10.9661 16.0439 10.9991 15.8639 11.0051 15.6849C11.0141 15.5449 11.0051 15.4019 11.0081 15.2579C11.0111 15.1719 10.9991 15.0819 10.8321 15.0979C10.4531 15.1359 10.4381 14.9839 10.4531 14.7899C10.4681 14.6479 10.4591 14.5049 10.4591 14.3639C10.4591 14.2939 10.4621 14.1939 10.3231 14.2069C9.76811 14.2589 9.90211 13.9849 9.89011 13.7819C9.88411 13.6199 9.87511 13.4589 9.86711 13.2959H9.34111C9.13611 13.4339 9.17411 13.6119 9.16211 13.7819C9.15611 13.9009 9.17711 14.0329 8.97911 14.0999C8.67711 14.1989 8.64711 14.3869 8.63511 14.5839C8.62611 14.7049 8.68911 14.8559 8.50411 14.9199C8.11711 15.0579 8.10811 15.2939 8.10611 15.5439C8.10611 15.6629 8.12911 15.8049 7.91611 15.8539C7.55211 15.9399 7.50311 16.1389 7.49211 16.3659C7.48611 16.4679 7.52811 16.5819 7.40411 16.6879C7.26411 16.5489 7.33311 16.4149 7.31211 16.2879C7.28811 16.1559 7.28511 16.0029 7.10811 15.9339C6.80611 15.8209 6.77711 15.6489 6.78311 15.4479C6.78611 15.2599 6.73211 15.0729 6.45411 14.9869C6.20311 14.9089 6.16911 14.7779 6.16911 14.6169C6.16711 14.4349 6.17911 14.2339 5.90411 14.1339C5.68011 14.0539 5.64211 13.9349 5.64211 13.7819C5.64211 13.6119 5.67411 13.4329 5.46811 13.2959H4.94311C4.93711 13.5399 4.93411 13.7839 4.93411 14.0259C4.93711 14.1299 4.91611 14.2199 4.72411 14.1989C4.36011 14.1589 4.36611 14.3149 4.38311 14.4899C4.39011 14.6319 4.38011 14.7759 4.38611 14.9169C4.38611 15.0199 4.35711 15.1099 4.17411 15.0919C3.82411 15.0589 3.79111 15.1959 3.81611 15.3819C3.83111 15.5149 3.80511 15.6459 3.82211 15.7809C3.83411 15.9229 3.79211 16.0159 3.54111 15.9909C3.32711 15.9659 3.25111 16.0329 3.26911 16.1789C3.28511 16.3079 3.26311 16.4409 3.27511 16.5749C3.28811 16.7649 3.31411 16.9519 2.89311 16.8949C2.81911 16.8869 2.73611 16.9009 2.73611 16.9659C2.73311 17.2209 2.73311 17.4729 2.74811 17.7299C2.74811 17.7929 2.84011 17.8059 2.91411 17.7949C3.31011 17.7389 3.28511 17.9219 3.27511 18.0999C3.26511 18.2429 3.27111 18.3839 3.26911 18.5259C3.26911 18.6119 3.26911 18.7079 3.44111 18.6859C3.82011 18.6469 3.84311 18.7969 3.82311 18.9939C3.80611 19.1259 3.82611 19.2589 3.81711 19.3899C3.80411 19.5289 3.85511 19.6109 4.08011 19.5849C4.35011 19.5559 4.40011 19.6559 4.38811 19.8169C4.37311 19.9909 4.38811 20.1629 4.38511 20.3359C4.38511 20.4249 4.39511 20.5129 4.56711 20.4899C4.95111 20.4399 4.95711 20.5999 4.93911 20.7899C4.92811 20.9239 4.94511 21.0539 4.93311 21.1859C4.91811 21.3369 4.97511 21.4029 5.22111 21.4009C5.44911 21.3989 5.48811 21.3339 5.48211 21.1999C5.47011 21.0149 5.48211 20.8329 5.47911 20.6489C5.47611 20.5629 5.48511 20.4719 5.65611 20.4939C6.09411 20.5519 6.04111 20.3499 6.03211 20.1649C6.02611 20.0239 6.03211 19.8809 6.03211 19.7389C6.03211 19.6439 6.07411 19.5699 6.22711 19.5889C6.61811 19.6349 6.61211 19.4659 6.59711 19.2809C6.58811 19.1389 6.59711 18.9959 6.59711 18.8539C6.59411 18.7629 6.61511 18.6759 6.77611 18.6939C7.16911 18.7389 7.15311 18.5709 7.14111 18.3859C7.13311 18.2639 7.15011 18.1439 7.13811 18.0209C7.12711 17.8829 7.14111 17.7979 7.40911 17.7999C7.65811 17.7999 7.69911 17.8689 7.68711 18.0149C7.67511 18.1869 7.69011 18.3589 7.68411 18.5339C7.68111 18.6309 7.71911 18.7049 7.87211 18.6879C8.25811 18.6469 8.26411 18.8109 8.24911 19.0009C8.23711 19.1419 8.24911 19.2859 8.24611 19.4269C8.24311 19.5179 8.25811 19.6049 8.42611 19.5829C8.80211 19.5419 8.82411 19.6939 8.80511 19.8889C8.79011 20.0409 8.80211 20.1929 8.80211 20.3449C8.80211 20.4169 8.79611 20.5089 8.95011 20.4909C9.40111 20.4329 9.35611 20.6369 9.34511 20.8319C9.33911 20.9529 9.35411 21.0769 9.34511 21.1969C9.32811 21.3299 9.37111 21.4019 9.59911 21.4019C9.83911 21.4039 9.91011 21.3439 9.89811 21.1869C9.88311 21.0159 9.89511 20.8429 9.89211 20.6699C9.88911 20.5729 9.88911 20.4709 10.0881 20.4939C10.4751 20.5389 10.4781 20.3779 10.4631 20.1899C10.4481 20.0379 10.4631 19.8839 10.4601 19.7329C10.4571 19.6339 10.5111 19.5679 10.6621 19.5879C11.0291 19.6319 11.0251 19.4779 11.0121 19.2989C11.0001 19.1469 11.0151 18.9949 11.0061 18.8439C11.0031 18.7439 11.0431 18.6759 11.2001 18.6939C11.5581 18.7329 11.5721 18.5879 11.5531 18.4069C11.5411 18.2859 11.5651 18.1579 11.5471 18.0399C11.5241 17.8639 11.5861 17.7679 11.8761 17.7989C12.0911 17.8199 12.1301 17.7159 12.1001 17.6079C12.0341 17.3719 12.2601 17.1129 11.9761 16.8979V16.8979ZM6.57911 17.7229C6.57511 17.7999 6.46011 17.8079 6.37711 17.7969C6.01011 17.7529 6.01011 17.9139 6.02711 18.0879C6.03911 18.2119 6.02111 18.3339 6.03011 18.4529C6.04611 18.6069 6.01511 18.7209 5.73411 18.6909C5.51211 18.6699 5.46511 18.7579 5.47411 18.8919C5.48611 19.0539 5.46511 19.2179 5.48011 19.3779C5.49211 19.5259 5.44711 19.5929 5.19911 19.5929C4.92811 19.5949 4.92711 19.5009 4.93111 19.3689C4.94311 19.2259 4.92211 19.0829 4.93711 18.9399C4.95811 18.7739 4.92011 18.6589 4.61811 18.6879C4.41411 18.7089 4.37211 18.6229 4.38411 18.5039C4.39111 18.3929 4.38411 18.2789 4.38711 18.1679C4.39111 17.9699 4.46811 17.7389 3.97611 17.7929C3.84311 17.8119 3.81911 17.7269 3.81911 17.6499V17.3439C3.81911 17.2649 3.82811 17.1829 3.81611 17.1009C3.79211 16.9509 3.86411 16.8669 4.10311 16.8939C4.34811 16.9219 4.40211 16.8309 4.38611 16.6829C4.37111 16.5419 4.39311 16.3999 4.38311 16.2549C4.36511 16.0869 4.38611 15.9469 4.72111 15.9879C4.90311 16.0089 4.94311 15.9339 4.93711 15.8249C4.92611 15.6529 4.94311 15.4809 4.93111 15.3059C4.92011 15.1599 4.96011 15.0889 5.20911 15.0889C5.48211 15.0869 5.48511 15.1839 5.48011 15.3179C5.47111 15.4579 5.48911 15.6029 5.47111 15.7419C5.45211 15.9129 5.49411 16.0229 5.79311 15.9899C6.00311 15.9669 6.03511 16.0559 6.02911 16.1769C6.02311 16.3269 6.03811 16.4809 6.02311 16.6309C6.00811 16.8089 6.04111 16.9369 6.36711 16.8969C6.45011 16.8869 6.57811 16.8769 6.58011 16.9599C6.59611 17.2169 6.59311 17.4689 6.57911 17.7229V17.7229ZM10.7371 17.7999C10.4941 17.7729 10.4381 17.8599 10.4531 18.0089C10.4681 18.1399 10.4441 18.2739 10.4621 18.4049C10.4801 18.5899 10.4501 18.7289 10.1011 18.6959C9.92111 18.6779 9.88511 18.7629 9.88811 18.8679C9.89711 19.0309 9.88211 19.1949 9.89411 19.3559C9.90611 19.5069 9.88511 19.5959 9.60111 19.5959C9.32611 19.5899 9.33311 19.4919 9.34411 19.3649C9.35011 19.2419 9.33811 19.1219 9.34411 18.9979C9.35911 18.8149 9.37011 18.6449 8.98011 18.6879C8.80711 18.7089 8.79811 18.6209 8.80111 18.5319C8.80411 18.3879 8.79211 18.2489 8.80411 18.1059C8.81811 17.9219 8.82911 17.7479 8.43711 17.7999C8.42311 17.7999 8.40311 17.8019 8.39711 17.7969C8.08611 17.5769 8.31611 17.3069 8.24911 17.0649C8.21311 16.9289 8.31111 16.8759 8.49711 16.8969C8.75411 16.9229 8.82611 16.8379 8.80511 16.6719C8.78711 16.5429 8.81311 16.4079 8.79911 16.2789C8.78111 16.0969 8.79011 15.9429 9.14911 15.9889C9.30911 16.0079 9.35111 15.9449 9.34511 15.8469C9.33911 15.6639 9.35411 15.4819 9.34511 15.2969C9.33411 15.1699 9.36011 15.0899 9.59311 15.0899C9.82111 15.0899 9.91411 15.1339 9.89511 15.2969C9.88011 15.4379 9.90411 15.5829 9.88911 15.7239C9.87411 15.8939 9.89511 16.0309 10.2271 15.9939C10.3981 15.9709 10.4631 16.0339 10.4601 16.1509C10.4541 16.3129 10.4721 16.4749 10.4541 16.6359C10.4371 16.8179 10.4801 16.9339 10.8011 16.8959C10.9851 16.8729 11.0201 16.9529 11.0091 17.0599C11.0031 17.1519 11.0091 17.2419 11.0091 17.3339C11.0091 17.4249 11.0001 17.5169 11.0121 17.6069C11.0281 17.7489 10.9511 17.8209 10.7371 17.7999V17.7999ZM12.0791 47.8969C12.0791 47.8339 11.9871 47.8159 11.9171 47.8259C11.5291 47.8749 11.5291 47.7099 11.5441 47.5239C11.5561 47.3799 11.5471 47.2389 11.5471 47.0939C11.5501 47.0069 11.5471 46.9139 11.3761 46.9339C10.9871 46.9779 10.9871 46.8159 11.0031 46.6259C11.0171 46.4839 11.0001 46.3419 11.0091 46.1989C11.0151 46.0909 10.9761 46.0139 10.7921 46.0379C10.4601 46.0779 10.4421 45.9389 10.4541 45.7679C10.4661 45.6039 10.4511 45.4419 10.4571 45.2799C10.4601 45.1809 10.4191 45.1119 10.2611 45.1329C9.88011 45.1799 9.86811 45.0229 9.88611 44.8309C9.90111 44.6859 9.88011 44.5459 9.89211 44.4039C9.90711 44.2439 9.79111 44.2209 9.59611 44.2209C9.41511 44.2229 9.32511 44.2579 9.33911 44.3929C9.35111 44.5849 9.34211 44.7809 9.34211 44.9709C9.34211 45.0579 9.34211 45.1509 9.16611 45.1279C8.77811 45.0759 8.78411 45.2419 8.79611 45.4299C8.81011 45.5779 8.79911 45.7339 8.79911 45.8869C8.79911 45.9629 8.78411 46.0449 8.64311 46.0319C8.14811 45.9769 8.24711 46.2159 8.24411 46.4069C8.24111 46.5292 8.24111 46.6516 8.24411 46.7739C8.24711 46.8679 8.20511 46.9449 8.05211 46.9249C7.65811 46.8839 7.66711 47.0549 7.68211 47.2399C7.69111 47.3599 7.67311 47.4819 7.68511 47.6029C7.70311 47.7509 7.65611 47.8199 7.40711 47.8219C7.13911 47.8239 7.12811 47.7349 7.13611 47.5969C7.14811 47.4249 7.13911 47.2529 7.13911 47.0799C7.13611 47.0089 7.14211 46.9199 6.99411 46.9339C6.50411 46.9829 6.59511 46.7469 6.59511 46.5519C6.59511 46.4319 6.58911 46.3079 6.59511 46.1859C6.59811 46.0899 6.55911 46.0159 6.40311 46.0359C6.02111 46.0779 6.00911 45.9209 6.02711 45.7299C6.03911 45.5749 6.03011 45.4239 6.03011 45.2699C6.03011 45.1959 6.02111 45.1139 5.87411 45.1299C5.42711 45.1849 5.46611 44.9819 5.47811 44.7839C5.48411 44.6639 5.46911 44.5429 5.48111 44.4199C5.49311 44.2869 5.44811 44.2209 5.22011 44.2189C4.97411 44.2149 4.92111 44.2819 4.93211 44.4329C4.94411 44.6179 4.93511 44.7969 4.93511 44.9819C4.93511 45.0559 4.93511 45.1429 4.78511 45.1249C4.34411 45.0709 4.36711 45.2659 4.38511 45.4669C4.39211 45.6009 4.38211 45.7329 4.38811 45.8649C4.38811 45.9689 4.35011 46.0519 4.17011 46.0319C3.80711 45.9889 3.79911 46.1399 3.81711 46.3199C3.82911 46.4519 3.80611 46.5849 3.82311 46.7159C3.84111 46.8709 3.77211 46.9519 3.53011 46.9269C3.30811 46.9069 3.25211 46.9829 3.26911 47.1239C3.28511 47.2539 3.26511 47.3849 3.27511 47.5199C3.28511 47.6959 3.27111 47.7829 2.92011 47.8459C2.49611 47.9229 2.80511 48.2729 2.73611 48.4969C2.71111 48.5899 2.65611 48.7529 2.93311 48.7219C3.25911 48.6889 3.29311 48.8059 3.27511 48.9829C3.25911 49.1439 3.27511 49.3059 3.26911 49.4709C3.26911 49.5599 3.28811 49.6469 3.45311 49.6259C3.84711 49.5769 3.83511 49.7469 3.82011 49.9299C3.81111 50.0749 3.82611 50.2149 3.81711 50.3589C3.80611 50.4749 3.87711 50.5389 4.04511 50.5229C4.37011 50.4889 4.40311 50.6179 4.38811 50.7939C4.37311 50.9459 4.38511 51.0979 4.38511 51.2489C4.38511 51.3329 4.37611 51.4319 4.55211 51.4129C4.97511 51.3639 4.94511 51.5489 4.93911 51.7429C4.92811 51.9339 4.93911 52.1299 4.94511 52.3219H5.47011C5.67611 52.1849 5.63511 52.0069 5.64711 51.8339C5.65611 51.7259 5.62211 51.5969 5.79511 51.5379C6.13111 51.4259 6.16811 51.2229 6.17411 51.0009C6.18011 50.8849 6.13911 50.7409 6.34311 50.6819C6.73911 50.5629 6.79311 50.3349 6.79311 50.0779C6.79311 49.9769 6.75711 49.8479 6.89811 49.7989C7.32211 49.6469 7.31611 49.3869 7.31911 49.1169C7.32211 49.0559 7.29511 48.9729 7.43311 48.9499C7.53311 49.0909 7.47811 49.2359 7.50311 49.3759C7.53211 49.5229 7.57811 49.6719 7.79911 49.7199C8.09211 49.7859 8.11011 49.9329 8.11211 50.1049C8.11211 50.2959 8.07911 50.5109 8.36611 50.6239C8.59411 50.7149 8.64111 50.8399 8.64111 51.0019C8.63811 51.1859 8.63211 51.3849 8.90811 51.4839C9.12811 51.5679 9.16511 51.6849 9.16511 51.8349C9.16511 52.0079 9.13611 52.1869 9.34111 52.3229H9.86711L9.89311 51.6229C9.89611 51.5369 9.85511 51.4059 10.0551 51.4219C10.5091 51.4709 10.4671 51.2739 10.4581 51.0719C10.4521 50.9409 10.4611 50.8079 10.4581 50.6759C10.4521 50.5799 10.5031 50.5119 10.6571 50.5259C11.0071 50.5639 11.0291 50.4229 11.0101 50.2399C10.9981 50.1079 11.0161 49.9749 11.0041 49.8439C10.9951 49.7019 11.0181 49.5999 11.2751 49.6309C11.4881 49.6549 11.5641 49.5869 11.5501 49.4419C11.5381 49.3099 11.5561 49.1789 11.5441 49.0459C11.5291 48.8519 11.5141 48.6689 11.9311 48.7239C12.0021 48.7339 12.0911 48.7209 12.0941 48.6549C12.0941 48.4019 12.0941 48.1499 12.0791 47.8969V47.8969ZM6.31511 48.7289C6.07611 48.7019 6.00411 48.7829 6.02211 48.9359C6.03711 49.0679 6.01911 49.2009 6.02811 49.3319C6.04911 49.5229 6.02811 49.6789 5.65211 49.6379C5.48111 49.6169 5.47511 49.7049 5.47511 49.7909C5.47811 49.9769 5.46311 50.1579 5.47811 50.3419C5.49311 50.4889 5.41011 50.5309 5.20211 50.5309C4.99211 50.5309 4.90911 50.4869 4.93011 50.3399C4.94511 50.2299 4.93611 50.1149 4.93311 50.0049C4.93011 49.8159 5.03211 49.5739 4.53511 49.6289C4.39211 49.6439 4.38611 49.5549 4.38611 49.4819C4.38311 49.3299 4.36811 49.1779 4.38611 49.0259C4.40711 48.8279 4.37711 48.6779 4.00811 48.7289C3.98911 48.7309 3.97311 48.7329 3.96111 48.7269C3.63411 48.5229 3.89811 48.2619 3.82411 48.0279C3.79111 47.9279 3.80411 47.8049 4.02811 47.8269C4.38511 47.8639 4.40411 47.7229 4.38511 47.5389C4.37011 47.4089 4.39511 47.2759 4.37911 47.1429C4.36111 46.9909 4.43011 46.9119 4.66911 46.9309C4.89011 46.9519 4.94711 46.8779 4.93611 46.7369C4.92511 46.5769 4.94211 46.4109 4.93011 46.2509C4.91911 46.1069 4.94811 46.0319 5.20611 46.0319C5.46411 46.0319 5.49011 46.1109 5.47811 46.2529C5.46311 46.3819 5.48711 46.5179 5.47211 46.6479C5.44811 46.8339 5.48111 46.9689 5.82811 46.9359C5.97911 46.9219 6.03011 46.9859 6.02711 47.0859C6.02111 47.2159 6.03311 47.3489 6.02411 47.4799C6.01211 47.6789 5.97311 47.8819 6.42711 47.8299C6.55911 47.8139 6.59211 47.8909 6.59211 47.9719C6.58911 48.0732 6.58911 48.1746 6.59211 48.2759C6.59211 48.3579 6.58011 48.4379 6.59211 48.5189C6.61111 48.6609 6.56611 48.7579 6.31511 48.7289V48.7289ZM10.7761 48.7289C10.4771 48.6919 10.4281 48.7999 10.4511 48.9709C10.4661 49.0819 10.4511 49.1949 10.4571 49.3069C10.4661 49.4959 10.4981 49.6869 10.0731 49.6379C9.90611 49.6169 9.88511 49.7009 9.88811 49.7909C9.89111 49.9769 9.87911 50.1579 9.89111 50.3419C9.90311 50.4889 9.82011 50.5309 9.61211 50.5309C9.40911 50.5309 9.31911 50.4889 9.33911 50.3419C9.35411 50.2179 9.33911 50.0979 9.34211 49.9769C9.35111 49.7839 9.40511 49.5749 8.95011 49.6309C8.80411 49.6479 8.80211 49.5569 8.79911 49.4849C8.79911 49.3329 8.78711 49.1799 8.80211 49.0279C8.82211 48.8379 8.81011 48.6759 8.42911 48.7289C8.41111 48.7309 8.39511 48.7329 8.38611 48.7269C8.06211 48.5209 8.32111 48.2619 8.24611 48.0279C8.21611 47.9279 8.23111 47.8049 8.45811 47.8269C8.82311 47.8659 8.81511 47.7089 8.80211 47.5349C8.79011 47.3929 8.81011 47.2529 8.79611 47.1079C8.78411 46.9789 8.85011 46.9159 9.04111 46.9329C9.31211 46.9599 9.36211 46.8619 9.34211 46.7039C9.32911 46.5529 9.35411 46.3969 9.33911 46.2469C9.32311 46.0969 9.37411 46.0339 9.61811 46.0319C9.88311 46.0319 9.90311 46.1149 9.89111 46.2549C9.88211 46.3939 9.90011 46.5389 9.88511 46.6779C9.86711 46.8489 9.90811 46.9629 10.2041 46.9339C10.4021 46.9159 10.4651 46.9879 10.4561 47.1149C10.4471 47.2579 10.4651 47.3999 10.4501 47.5399C10.4351 47.7179 10.4411 47.8709 10.8001 47.8279C10.9541 47.8099 11.0111 47.8709 11.0051 47.9739C10.9991 48.0749 11.0051 48.1769 11.0051 48.2759C11.0051 48.3679 10.9991 48.4609 11.0081 48.5499C11.0171 48.6699 10.9831 48.7539 10.7761 48.7289" fill="#CB0000"/>
<path fill-rule="evenodd" clip-rule="evenodd" d="M7.6849 14.5779C7.6849 14.6879 7.6759 14.8009 7.6909 14.9099C7.7089 15.0589 7.6169 15.0999 7.4119 15.0999C7.2109 15.0979 7.1249 15.0629 7.1369 14.9119C7.1549 14.6719 7.1519 14.4269 7.1369 14.1869C7.1309 14.0509 7.2049 14.0119 7.3929 14.0159C7.5579 14.0229 7.7109 14.0119 7.6919 14.1849C7.6729 14.3139 7.6849 14.4479 7.6849 14.5779V14.5779ZM7.6849 51.0999C7.6849 51.2009 7.6729 51.3029 7.6909 51.4019C7.7139 51.5679 7.6109 51.6029 7.3919 51.6049C7.1619 51.6069 7.1339 51.5329 7.1359 51.4039C7.1509 51.1725 7.1509 50.9403 7.1359 50.7089C7.1239 50.5589 7.2069 50.5199 7.4089 50.5199C7.6129 50.5219 7.7079 50.5569 7.6899 50.7079C7.6759 50.8349 7.6849 50.9699 7.6849 51.0999" fill="#CC0303"/>
<path fill-rule="evenodd" clip-rule="evenodd" d="M11.786 34.52C11.583 34.545 11.538 34.466 11.547 34.344C11.559 34.21 11.55 34.076 11.55 33.948C11.55 33.874 11.547 33.783 11.399 33.801C10.896 33.858 11.003 33.612 11.015 33.423C11.02 33.265 11.015 33.138 10.697 33.174C10.526 33.195 10.469 33.136 10.478 33.019C10.484 32.876 10.481 32.734 10.478 32.592C10.478 32.517 10.484 32.435 10.635 32.454C11.07 32.51 11.03 32.308 11.006 32.126C10.985 31.934 10.992 31.778 11.379 31.825C11.556 31.846 11.55 31.746 11.55 31.664C11.55 31.531 11.559 31.399 11.547 31.268C11.541 31.156 11.589 31.084 11.766 31.109C12.091 31.146 12.124 31.021 12.11 30.846C12.094 30.671 12.104 30.499 12.104 30.327C12.104 30.103 12.097 29.879 12.107 29.655C12.113 29.524 12.034 29.487 11.846 29.477C11.517 29.459 11.562 29.602 11.541 29.748C11.529 29.843 11.68 30.034 11.362 30.012C11.014 29.991 10.99 30.115 11.003 30.302C11.006 30.401 11.114 30.582 10.801 30.557C10.481 30.532 10.434 30.64 10.454 30.821C10.469 30.962 10.448 31.108 10.46 31.247C10.469 31.39 10.445 31.475 10.185 31.473C9.95196 31.469 9.87396 31.421 9.88896 31.262C9.90696 31.098 9.88596 30.936 9.89496 30.773C9.90696 30.63 9.86596 30.533 9.61596 30.562C9.35396 30.591 9.32696 30.485 9.34496 30.347C9.36296 30.159 9.40196 29.958 8.96596 30.017C8.82396 30.038 8.79896 29.963 8.80196 29.886C8.80496 29.814 8.78696 29.74 8.80496 29.672C8.86996 29.392 8.74496 29.249 8.29896 29.301C8.19496 29.314 8.01396 29.339 7.99096 29.241C7.92796 28.982 7.80496 28.605 8.01296 28.479C8.34296 28.281 8.21196 28.09 8.23696 27.893C8.26896 27.663 8.25796 27.426 8.24296 27.193C8.23196 27.034 8.27796 26.934 8.55096 26.964C8.78096 26.988 8.81896 26.896 8.80496 26.765C8.79296 26.654 8.81296 26.538 8.79896 26.43C8.78096 26.283 8.87296 26.242 9.07796 26.24C9.29696 26.238 9.35596 26.296 9.34496 26.434C9.33296 26.6379 9.33296 26.8422 9.34496 27.046C9.36296 27.224 9.35696 27.369 8.99796 27.328C8.79296 27.302 8.77896 27.407 8.80496 27.501C8.87296 27.742 8.59796 28.141 8.95996 28.197C9.41196 28.268 9.33896 28.414 9.34496 28.6V28.965C9.34196 29.055 9.36296 29.141 9.52496 29.125C9.91296 29.082 9.90996 29.248 9.89496 29.435C9.88596 29.556 9.90096 29.677 9.88896 29.799C9.87696 29.942 9.90996 30.026 10.167 30.024C10.4 30.024 10.478 29.969 10.463 29.811C10.445 29.638 10.46 29.466 10.46 29.294C10.46 29.207 10.463 29.113 10.635 29.131C11.07 29.178 11.018 28.978 11.009 28.793C11.003 28.662 11.015 28.527 11.006 28.399C11.003 28.296 11.02 28.208 11.212 28.232C11.538 28.271 11.57 28.141 11.553 27.967C11.541 27.835 11.562 27.704 11.547 27.571C11.529 27.405 11.562 27.288 11.867 27.32C11.984 27.334 12.106 27.33 12.103 27.206C12.096 26.984 12.103 26.761 12.096 26.536C12.096 26.47 12.046 26.411 11.939 26.423C11.475 26.482 11.549 26.261 11.549 26.071C11.552 25.939 11.543 25.807 11.552 25.675C11.555 25.575 11.504 25.515 11.353 25.533C10.986 25.573 10.992 25.412 11.005 25.238C11.019 25.086 11.008 24.934 11.008 24.782C11.008 24.708 11.014 24.618 10.862 24.636C10.368 24.688 10.459 24.453 10.459 24.259C10.459 24.137 10.453 24.014 10.459 23.893C10.462 23.785 10.427 23.704 10.243 23.727C9.88496 23.77 9.86696 23.624 9.88796 23.443C9.90296 23.308 9.88496 23.177 9.89396 23.045C9.90296 22.909 9.88496 22.819 9.62096 22.819C9.36696 22.819 9.32796 22.894 9.34196 23.039C9.35396 23.211 9.34196 23.383 9.34496 23.556C9.34796 23.655 9.34496 23.751 9.14596 23.726C8.77996 23.679 8.78796 23.837 8.79896 24.013C8.81296 24.167 8.79596 24.316 8.80496 24.471C8.80796 24.585 8.75096 24.652 8.57696 24.631C8.24596 24.589 8.22696 24.728 8.24296 24.9C8.25496 25.049 8.24296 25.203 8.24596 25.356C8.24896 25.462 8.20996 25.546 8.03296 25.527C7.66896 25.491 7.66596 25.644 7.68296 25.821C7.69196 25.945 7.67696 26.066 7.68296 26.187C7.69196 26.315 7.70396 26.416 7.42496 26.417C7.13696 26.421 7.12596 26.327 7.13396 26.181C7.14896 26.017 7.13696 25.854 7.13996 25.692C7.13996 25.607 7.14896 25.513 6.97196 25.534C6.59296 25.576 6.57396 25.421 6.59296 25.225C6.60496 25.086 6.59596 24.941 6.59596 24.801C6.59596 24.716 6.59896 24.613 6.42796 24.637C5.95896 24.691 6.02796 24.471 6.03096 24.283V23.885C6.03096 23.8 6.02196 23.707 5.85396 23.729C5.47196 23.776 5.44796 23.626 5.47496 23.432C5.48696 23.319 5.48096 23.207 5.47796 23.096C5.47496 22.959 5.53896 22.812 5.19396 22.818C4.87096 22.823 4.93796 22.958 4.93496 23.083C4.93196 23.246 4.93196 23.407 4.93496 23.569C4.93796 23.658 4.92696 23.747 4.75796 23.725C4.37796 23.678 4.36296 23.831 4.38096 24.027C4.39396 24.178 4.38096 24.331 4.38396 24.482C4.38696 24.579 4.33996 24.651 4.18696 24.63C3.79196 24.584 3.80096 24.753 3.81696 24.94C3.82596 25.072 3.80596 25.204 3.81996 25.336C3.83196 25.475 3.76896 25.551 3.54996 25.53C3.30396 25.506 3.25096 25.59 3.26896 25.74C3.28496 25.873 3.26296 26.004 3.27496 26.136C3.28796 26.31 3.30196 26.465 2.92996 26.424C2.69396 26.401 2.70596 26.535 2.73296 26.627C2.80696 26.857 2.50296 27.227 2.88396 27.295C3.28096 27.364 3.28696 27.465 3.27496 27.664C3.26496 27.796 3.27496 27.929 3.26896 28.06C3.26496 28.164 3.28796 28.249 3.47896 28.228C3.79496 28.191 3.84296 28.31 3.82296 28.489C3.80396 28.64 3.82296 28.793 3.81696 28.946C3.81396 29.049 3.83796 29.14 4.02496 29.125C4.36696 29.093 4.40896 29.222 4.38696 29.412C4.36896 29.543 4.39396 29.677 4.38096 29.808C4.36596 29.954 4.41696 30.023 4.66196 30.025C4.92696 30.025 4.94596 29.941 4.93696 29.8C4.92596 29.648 4.94296 29.496 4.93096 29.343C4.92196 29.2 4.94596 29.1 5.20696 29.126C5.46496 29.152 5.49096 29.046 5.47896 28.907C5.46696 28.775 5.49096 28.639 5.47296 28.511C5.44896 28.322 5.48196 28.198 5.82896 28.226C6.09996 28.247 6.04696 28.08 6.01896 27.991C5.95096 27.768 6.24896 27.414 5.86196 27.354C5.46396 27.291 5.46396 27.184 5.47196 26.985C5.48246 26.8015 5.48246 26.6176 5.47196 26.434C5.46296 26.295 5.52396 26.236 5.74296 26.238C5.94396 26.24 6.04296 26.275 6.02696 26.426C6.01796 26.548 6.02996 26.672 6.02396 26.793C6.01796 26.897 6.04796 26.983 6.23396 26.96C6.58896 26.921 6.60996 27.063 6.59196 27.248C6.57696 27.439 6.58896 27.633 6.59196 27.826C6.59196 27.999 6.50096 28.265 6.62096 28.326C7.00696 28.523 6.80596 28.772 6.86196 28.996C6.93196 29.25 6.76996 29.346 6.41096 29.304C6.10196 29.269 5.98096 29.359 6.01996 29.573C6.03796 29.674 6.01696 29.776 6.02596 29.877C6.03496 29.983 5.96596 30.035 5.81896 30.019C5.46296 29.975 5.46996 30.133 5.46996 30.31C5.46996 30.399 5.58996 30.577 5.30596 30.553C4.92196 30.523 4.91596 30.668 4.93296 30.859C4.94496 31.002 4.92396 31.145 4.93896 31.284C4.95996 31.442 4.85396 31.469 4.65496 31.471C4.44196 31.473 4.37096 31.423 4.38296 31.281C4.39596 31.096 4.38296 30.915 4.38896 30.731C4.38896 30.625 4.35696 30.543 4.17096 30.562C3.81596 30.607 3.80596 30.459 3.81296 30.276C3.81896 30.185 3.90996 30.005 3.64596 30.027C3.19996 30.064 3.25496 29.874 3.27696 29.694C3.29296 29.543 3.23596 29.475 2.98896 29.478C2.76396 29.48 2.72596 29.544 2.72896 29.68C2.73496 30.086 2.73796 30.493 2.72896 30.899C2.72396 31.049 2.76696 31.133 3.01296 31.107C3.23296 31.08 3.29196 31.154 3.27696 31.294C3.26096 31.428 3.27696 31.557 3.27096 31.691C3.27096 31.769 3.29796 31.843 3.43696 31.828C3.91196 31.768 3.82596 32 3.81696 32.178C3.80596 32.347 3.80596 32.491 4.14796 32.451C4.29996 32.433 4.35496 32.49 4.34896 32.591C4.34596 32.742 4.34596 32.897 4.34896 33.049C4.35196 33.137 4.29996 33.188 4.16896 33.173C3.75696 33.125 3.80596 33.322 3.81896 33.49C3.82796 33.67 3.85596 33.848 3.45796 33.8C3.29596 33.779 3.26896 33.862 3.26896 33.951C3.27496 34.072 3.25896 34.196 3.27496 34.318C3.29596 34.467 3.23096 34.548 2.98696 34.519C2.76496 34.492 2.72196 34.57 2.72696 34.71C2.73596 35.128 2.73596 35.543 2.72396 35.961C2.72196 36.112 2.81596 36.138 3.01096 36.147C3.33596 36.161 3.25096 36.008 3.27496 35.887C3.29896 35.781 3.14196 35.581 3.48796 35.608C3.83496 35.637 3.82596 35.498 3.82596 35.334C3.82596 35.217 3.72796 35.037 4.06196 35.067C4.35796 35.091 4.40596 34.989 4.38696 34.816C4.37196 34.677 4.39396 34.532 4.38396 34.391C4.36896 34.241 4.39096 34.146 4.67696 34.15C4.95196 34.156 4.94096 34.256 4.93496 34.383C4.93196 34.546 4.94396 34.71 4.93196 34.871C4.92096 35.009 4.97396 35.089 5.19696 35.062C5.49596 35.027 5.47796 35.159 5.48396 35.299C5.48696 35.398 5.39396 35.592 5.58396 35.584C6.20896 35.557 6.03096 35.855 6.02196 36.064C6.01296 36.267 6.10496 36.337 6.39496 36.325C6.54196 36.314 6.71596 36.269 6.84396 36.373C6.89196 36.408 6.88296 37.175 6.82896 37.183C6.44496 37.241 6.61296 37.452 6.59896 37.596C6.57896 37.881 6.58396 38.168 6.59596 38.451C6.60496 38.604 6.54196 38.685 6.30596 38.658C6.05196 38.631 6.01296 38.731 6.02796 38.876C6.03996 38.977 6.02196 39.079 6.03096 39.182C6.03996 39.313 5.99296 39.383 5.76796 39.387C5.52696 39.387 5.46596 39.324 5.47196 39.172C5.48696 38.9383 5.48696 38.7038 5.47196 38.47C5.46596 38.338 5.52996 38.289 5.71996 38.293C5.83396 38.297 6.01596 38.346 6.02496 38.198C6.03396 37.9641 6.03396 37.73 6.02496 37.496C6.02196 37.4 5.91996 37.384 5.80896 37.396C5.48196 37.435 5.46296 37.299 5.47596 37.126C5.48796 36.975 5.47296 36.822 5.48196 36.671C5.48496 36.567 5.45996 36.476 5.27396 36.498C4.94496 36.535 4.91696 36.407 4.93296 36.233C4.94496 36.1 4.92796 35.969 4.93896 35.837C4.95396 35.683 4.92396 35.594 4.64296 35.596C4.36796 35.599 4.37896 35.701 4.38496 35.828C4.38796 35.99 4.38196 36.155 4.38796 36.316C4.38796 36.42 4.36496 36.509 4.17596 36.491C3.82896 36.461 3.79296 36.595 3.81796 36.783C3.83296 36.914 3.80696 37.047 3.82396 37.179C3.83596 37.323 3.79996 37.42 3.54596 37.393C3.28896 37.362 3.25896 37.467 3.27096 37.606C3.28396 37.731 3.27096 37.854 3.27296 37.973C3.28696 38.161 3.32996 38.361 2.89796 38.299C2.82396 38.291 2.73796 38.303 2.73796 38.369C2.73496 38.623 2.73796 38.878 2.74696 39.13C2.74796 39.195 2.83996 39.21 2.90996 39.2C3.30496 39.146 3.28796 39.32 3.27496 39.504C3.26496 39.655 3.27496 39.807 3.26896 39.961C3.26896 40.045 3.30396 40.107 3.44096 40.091C3.87696 40.036 3.82596 40.239 3.81996 40.427C3.81396 40.569 3.81996 40.71 3.81996 40.851C3.81696 40.936 3.84896 41.006 3.98796 40.988C4.45096 40.932 4.38696 41.149 4.38396 41.341C4.38396 41.472 4.38696 41.607 4.38396 41.737C4.38396 41.822 4.38696 41.918 4.55996 41.898C4.99796 41.839 4.94396 42.039 4.93496 42.224C4.92696 42.344 4.94396 42.467 4.93196 42.591C4.91696 42.737 4.96696 42.805 5.21396 42.807C5.49196 42.809 5.48396 42.706 5.48096 42.574C5.47196 42.405 5.48096 42.23 5.47796 42.057C5.47496 41.968 5.48396 41.878 5.65196 41.902C6.09296 41.959 6.03696 41.756 6.03096 41.574C6.02496 41.429 6.03396 41.286 6.03096 41.144C6.02796 41.047 6.07296 40.976 6.22596 40.996C6.61696 41.042 6.61096 40.874 6.59596 40.687C6.58396 40.544 6.59596 40.404 6.59596 40.262C6.59596 40.173 6.60496 40.079 6.77096 40.1C7.15696 40.142 7.15996 39.984 7.13996 39.794C7.13196 39.675 7.14896 39.552 7.13696 39.431C7.12596 39.293 7.13696 39.205 7.40496 39.205C7.65696 39.209 7.69796 39.275 7.68896 39.422C7.67396 39.593 7.68896 39.767 7.68296 39.939C7.67996 40.038 7.71796 40.108 7.87396 40.092C8.26596 40.05 8.25996 40.221 8.24796 40.405C8.23596 40.548 8.24796 40.69 8.24496 40.832C8.24196 40.922 8.25696 41.011 8.42296 40.99C8.86096 40.936 8.81196 41.136 8.80096 41.322C8.79496 41.463 8.80096 41.608 8.80096 41.749C8.80396 41.821 8.79496 41.911 8.94696 41.895C9.38996 41.838 9.35896 42.038 9.34396 42.235C9.33796 42.356 9.35296 42.479 9.34396 42.603C9.32696 42.736 9.36996 42.804 9.59796 42.806C9.83796 42.806 9.90896 42.745 9.89396 42.592C9.88496 42.4188 9.88496 42.2453 9.89396 42.072C9.89396 41.995 9.86796 41.884 10.044 41.902C10.53 41.953 10.468 41.733 10.459 41.53C10.453 41.4 10.462 41.265 10.459 41.134C10.453 41.033 10.516 40.972 10.664 40.993C11.03 41.035 11.022 40.879 11.011 40.703C10.999 40.561 11.017 40.417 11.005 40.275C10.999 40.155 11.036 40.07 11.241 40.093C11.56 40.129 11.56 39.994 11.552 39.838C11.54 39.696 11.561 39.553 11.546 39.413C11.531 39.264 11.582 39.178 11.83 39.2C11.941 39.208 12.09 39.216 12.096 39.099C12.109 38.866 12.099 38.63 12.099 38.397C12.099 38.291 11.99 38.287 11.887 38.298C11.564 38.335 11.529 38.212 11.546 38.034C11.561 37.872 11.552 37.707 11.549 37.545C11.546 37.478 11.558 37.381 11.409 37.396C10.912 37.456 11.005 37.218 11.008 37.025C11.008 36.903 11.005 36.783 11.008 36.662C11.011 36.571 10.999 36.481 10.832 36.497C10.45 36.538 10.436 36.383 10.456 36.189C10.468 36.07 10.45 35.948 10.462 35.824C10.468 35.686 10.447 35.6 10.19 35.598C9.90596 35.591 9.87896 35.686 9.88796 35.836C9.90296 35.999 9.88496 36.162 9.89396 36.324C9.89996 36.434 9.85896 36.511 9.67696 36.492C9.34396 36.456 9.32496 36.591 9.34096 36.763C9.35296 36.925 9.33796 37.086 9.34396 37.248C9.34996 37.352 9.29896 37.406 9.14796 37.389C8.82996 37.352 8.77496 37.469 8.79796 37.649C8.81396 37.771 8.81196 37.893 8.79796 38.014C8.77496 38.199 8.79796 38.34 9.15096 38.295C9.31396 38.277 9.34696 38.342 9.34396 38.441C9.34096 38.703 9.33796 38.968 9.34396 39.232C9.34996 39.361 9.25496 39.384 9.09996 39.378C8.95296 39.372 8.78896 39.398 8.80096 39.235C8.80696 39.124 8.78896 39.009 8.80396 38.899C8.82496 38.73 8.77896 38.62 8.48196 38.655C8.27196 38.678 8.24296 38.59 8.24296 38.473C8.24896 38.137 8.24896 37.801 8.24596 37.463C8.24296 37.396 8.25796 37.279 8.21296 37.266C7.74896 37.121 8.02996 36.844 7.96496 36.635C7.89096 36.387 8.03596 36.272 8.40896 36.318C8.75896 36.361 8.84696 36.243 8.80496 36.024C8.78696 35.938 8.80496 35.842 8.80196 35.752C8.79596 35.659 8.82396 35.583 8.98996 35.604C9.39896 35.654 9.35396 35.463 9.34496 35.291C9.33896 35.17 9.30596 35.03 9.59296 35.063C9.86496 35.091 9.91196 34.991 9.89496 34.834C9.88296 34.691 9.89496 34.549 9.89196 34.406C9.88896 34.275 9.85096 34.152 10.164 34.148C10.498 34.144 10.463 34.277 10.46 34.42C10.454 34.582 10.46 34.745 10.46 34.906C10.457 35 10.483 35.079 10.646 35.058C11.049 35.008 11.015 35.186 11.015 35.366C11.015 35.452 10.93 35.614 11.162 35.593C11.583 35.56 11.577 35.726 11.55 35.92C11.529 36.062 11.571 36.145 11.825 36.147C12.079 36.147 12.112 36.062 12.106 35.922C12.096 35.534 12.096 35.15 12.109 34.763C12.115 34.595 12.088 34.478 11.786 34.516V34.52ZM9.58096 33.171C9.28496 33.139 9.35096 33.293 9.34496 33.405C9.33396 33.602 9.45596 33.859 8.92996 33.8C8.81296 33.784 8.80496 33.867 8.80196 33.93C8.80196 34.03 8.78696 34.131 8.80496 34.231C8.84696 34.451 8.75396 34.563 8.41196 34.516C8.05096 34.469 7.85696 34.575 7.96796 34.822C8.12496 35.171 7.68696 35.4 7.65696 35.713C7.64396 35.798 7.42596 35.75 7.29796 35.761C7.15196 35.767 7.18396 35.678 7.13296 35.624C6.84796 35.308 6.86696 34.966 6.85696 34.614C6.85096 34.435 6.59696 34.511 6.47296 34.521C6.09996 34.552 5.98696 34.452 6.02296 34.204C6.05296 33.997 6.15096 33.74 5.58996 33.772C5.38896 33.787 5.49596 33.594 5.48496 33.496C5.46396 33.324 5.56496 33.144 5.10796 33.155C4.76196 33.163 5.04096 32.908 4.94796 32.823C4.93896 32.61 4.84496 32.394 5.32296 32.437C5.57296 32.458 5.46796 32.294 5.47296 32.211C5.49596 32.016 5.36596 31.761 5.89496 31.815C6.03796 31.831 6.02596 31.728 6.02896 31.658C6.03196 31.559 6.04796 31.455 6.02596 31.354C5.98096 31.132 6.12996 31.062 6.41896 31.098C6.77896 31.141 6.97696 31.042 6.86296 30.795C6.70396 30.448 7.14396 30.219 7.16296 29.909C7.16896 29.808 7.39196 29.866 7.51296 29.855C7.64296 29.845 7.63996 29.919 7.69396 29.98C7.95796 30.299 7.98396 30.639 7.97196 30.995C7.96596 31.156 8.19696 31.101 8.31396 31.091C8.71796 31.054 8.85696 31.156 8.80896 31.436C8.78096 31.633 8.69796 31.869 9.22996 31.836C9.44596 31.824 9.32996 32.033 9.33496 32.138C9.34896 32.319 9.30696 32.494 9.70696 32.444C9.84296 32.426 9.87796 32.491 9.87496 32.573C9.87196 32.694 9.86596 32.818 9.88096 32.94C9.89496 33.093 9.86196 33.199 9.58096 33.168" fill="#CB0000"/>
<path fill-rule="evenodd" clip-rule="evenodd" d="M9.05978 43.5497C9.14578 43.2007 8.63678 42.9907 8.78278 42.6707C8.78478 42.6617 8.74878 42.6327 8.72778 42.6327C8.44678 42.6137 8.51178 42.4587 8.53078 42.3557C8.57478 42.1177 8.43778 42.0677 8.11678 42.0677C7.79778 42.0727 7.61878 42.1077 7.67578 42.3657C7.69678 42.4577 7.75778 42.5957 7.48278 42.6087C7.22278 42.6187 7.09278 42.5757 7.13578 42.3787C7.18978 42.1567 7.09878 42.0627 6.73178 42.0677C6.37878 42.0677 6.26278 42.1417 6.30778 42.3747C6.32278 42.4417 6.31078 42.5667 6.27178 42.5727C5.92378 42.6427 6.05678 42.8407 6.02678 42.9917C6.01778 43.0417 6.00578 43.0957 5.96678 43.1317C5.65878 43.3907 5.65578 43.6407 5.96978 43.8937C6.03778 43.9467 6.03778 44.0077 6.02378 44.0637C5.95078 44.3697 6.49678 44.5707 6.32378 44.8957C6.32078 44.9027 6.35978 44.9337 6.37478 44.9337C6.59378 44.9417 6.82078 44.9707 7.02578 44.9397C7.23878 44.9067 7.14278 44.7487 7.12978 44.6557C7.08878 44.3977 7.31678 44.3847 7.55578 44.4297C7.79078 44.4747 7.68378 44.6397 7.67178 44.7437C7.63878 45.0087 7.89678 44.9487 8.10178 44.9467C8.29878 44.9467 8.57478 45.0097 8.52478 44.7477C8.46778 44.4437 8.95778 44.2327 8.82178 43.9157C8.82178 43.9107 8.83878 43.8977 8.85278 43.8947C9.21078 43.8427 9.01978 43.6427 9.05978 43.5497V43.5497ZM7.15678 43.5247C7.01978 43.6867 6.80678 43.8247 6.80378 44.0337C6.80378 44.0457 6.61878 44.0597 6.62178 44.0127C6.62878 43.8297 6.49578 43.7177 6.32578 43.5937C6.26578 43.5507 6.23078 43.3777 6.42978 43.3387C6.60978 43.3017 6.58278 43.2167 6.58878 43.1257C6.59178 43.0577 6.57478 42.9767 6.73478 42.9797C6.88178 42.9857 6.89378 43.0757 6.86278 43.1347C6.74778 43.3397 7.24178 43.3237 7.15678 43.5247V43.5247ZM8.19178 44.0207C8.19778 44.0597 7.98478 44.0657 7.96678 43.9747C7.94378 43.8357 7.94878 43.7157 7.72678 43.6287C7.65078 43.5977 7.62878 43.4067 7.76178 43.3607C7.96078 43.2977 7.94978 43.2057 7.95478 43.0937C7.96078 42.9857 8.14278 42.9347 8.17178 43.0027C8.24478 43.1917 8.39078 43.3527 8.58778 43.4897C8.45778 43.6987 8.17478 43.8037 8.19178 44.0207ZM9.05978 22.1797C9.16478 21.8087 8.64178 21.5877 8.77878 21.2617C8.78078 21.2537 8.74178 21.2287 8.71778 21.2267C8.46778 21.2127 8.51678 21.0777 8.53178 20.9767C8.56678 20.7497 8.48078 20.6577 8.11178 20.6647C7.77578 20.6687 7.61978 20.7187 7.68178 20.9647C7.72478 21.1437 7.63678 21.2287 7.34978 21.2047C6.95578 21.1757 7.15078 20.9667 7.15078 20.8527C7.15078 20.6277 6.95678 20.6607 6.77678 20.6787C6.60678 20.6957 6.30178 20.5577 6.30778 20.8447C6.31078 20.9617 6.39978 21.1217 6.24778 21.1887C5.84678 21.3747 6.01178 21.7057 5.78078 21.9497C5.47278 22.2727 6.16578 22.5857 6.05278 22.9597C6.04978 22.9727 6.09078 22.9967 6.11078 22.9967C6.39578 23.0177 6.32478 23.1737 6.30378 23.2757C6.25578 23.5177 6.40478 23.5607 6.71878 23.5567C7.00878 23.5487 7.20278 23.5427 7.14378 23.2837C7.12078 23.1737 7.05278 23.0207 7.38778 23.0147C7.71778 23.0077 7.67178 23.1427 7.68678 23.2837C7.69578 23.3717 7.58778 23.4927 7.79678 23.5477C8.20378 23.6487 8.50278 23.5137 8.52478 23.2187C8.53078 23.1587 8.53378 23.0547 8.56278 23.0487C8.90378 22.9877 8.77678 22.8037 8.79878 22.6587C8.80978 22.5977 8.76678 22.5107 8.85878 22.4937C9.20678 22.4397 9.02178 22.2547 9.05978 22.1827V22.1797ZM6.80978 22.6257C6.80978 22.6497 6.61378 22.6647 6.61078 22.5927C6.59578 22.4397 6.57378 22.3117 6.34178 22.2307C6.29078 22.2117 6.28778 22.0267 6.33178 22.0087C6.55678 21.9257 6.60978 21.8057 6.60378 21.6457C6.60078 21.5627 6.79378 21.5777 6.79678 21.5907C6.81678 21.7957 7.00978 21.9387 7.19778 22.1017C7.03678 22.2797 6.81178 22.4167 6.80978 22.6257ZM8.30078 22.3277C8.24778 22.3497 8.25678 22.4597 8.24778 22.5267C8.24178 22.5977 8.20278 22.6397 8.11178 22.6477C8.06878 22.6397 8.03478 22.6397 8.01578 22.6267C7.86978 22.5257 8.05178 22.3437 7.76178 22.2497C7.60778 22.1967 7.82578 22.0137 7.87278 21.8957C8.09078 21.3787 8.06778 21.4877 8.33878 21.8917C8.48478 22.1077 8.66078 22.1807 8.30078 22.3277Z" fill="#CB0000"/>
<path fill-rule="evenodd" clip-rule="evenodd" d="M4.66315 22.1001C4.76515 21.8021 4.20515 21.6011 4.36715 21.2761C4.37315 21.2681 4.34115 21.2381 4.32015 21.2361C3.99115 21.2051 4.08915 21.0271 4.11015 20.9051C4.15115 20.6381 3.90815 20.6811 3.67715 20.6731C3.41315 20.6631 3.22415 20.6691 3.26515 20.9151C3.31015 21.2011 2.84915 21.4061 2.98115 21.7141C2.98415 21.7161 2.96415 21.7311 2.95015 21.7311C2.61715 21.7761 2.76515 21.9601 2.72715 22.0911C2.63715 22.4111 3.16815 22.6271 3.01115 22.9551C3.37815 23.0331 3.25315 23.2471 3.26915 23.4191C3.27515 23.4711 3.26915 23.5351 3.35715 23.5411C3.57815 23.5491 3.80615 23.5741 4.00915 23.5331C4.19615 23.4941 4.06515 23.3401 4.09715 23.2361C4.12115 23.1691 4.11615 23.0441 4.15115 23.0401C4.49215 22.9941 4.36115 22.8131 4.38715 22.6781C4.39715 22.6211 4.39415 22.5161 4.42315 22.5101C4.76515 22.4461 4.64015 22.2611 4.66315 22.1001ZM3.98215 22.2821C3.79815 22.3221 3.82615 22.4061 3.82015 22.4961C3.81715 22.5661 3.83215 22.6481 3.67715 22.6421C3.52715 22.6361 3.51315 22.5471 3.54715 22.4851C3.66315 22.2821 3.16215 22.3031 3.24815 22.0991C3.40115 21.9451 3.59515 21.7981 3.60615 21.5921C3.60815 21.5761 3.78915 21.5631 3.78615 21.6121C3.78315 21.7921 3.91115 21.9071 4.08215 22.0291C4.14315 22.0731 4.17915 22.2451 3.98215 22.2821V22.2821ZM4.60015 43.1801C4.28715 43.1241 4.41215 42.9621 4.38815 42.8351C4.37015 42.7681 4.43015 42.6571 4.32915 42.6421C3.99115 42.5891 4.09515 42.4111 4.11015 42.2791C4.13615 42.0171 3.88515 42.0781 3.68315 42.0761C3.47915 42.0761 3.21415 42.0211 3.26915 42.2811C3.33115 42.5811 2.83915 42.7931 2.98115 43.1091C2.98415 43.1131 2.96615 43.1251 2.95315 43.1271C2.59815 43.1811 2.77415 43.3821 2.72315 43.5231C2.73115 43.6221 2.69515 43.7921 2.75715 43.8101C3.09215 43.9091 2.98515 44.0971 3.00415 44.2611C3.00615 44.3001 3.01615 44.3711 3.03515 44.3731C3.38815 44.4211 3.28215 44.6141 3.26415 44.7531C3.23415 44.9971 3.46515 44.9561 3.65615 44.9441C3.83515 44.9301 4.13115 45.0451 4.10715 44.7601C4.09715 44.6481 4.00915 44.4731 4.18415 44.4291C4.40015 44.3701 4.37515 44.2851 4.38715 44.1751C4.40015 44.0471 4.29515 43.8871 4.60715 43.8351C4.70815 43.8221 4.69915 43.1981 4.60015 43.1801V43.1801ZM4.08315 43.6101C3.84715 43.7021 3.80515 43.8341 3.79615 44.0001C3.79315 44.0581 3.59015 44.0521 3.59315 44.0151C3.61415 43.8051 3.35815 43.6931 3.23215 43.5331C3.33215 43.3381 3.62615 43.2201 3.59315 43.0051C3.62838 42.9905 3.66603 42.9827 3.70415 42.9821C3.80215 42.9821 3.82015 43.0341 3.81715 43.0861C3.81115 43.2121 3.82315 43.3111 4.04515 43.3641C4.16115 43.3931 4.14015 43.5881 4.08315 43.6101ZM12.1101 22.1201C12.0831 22.0121 12.1931 21.8251 12.0471 21.7851C11.7371 21.7041 11.8551 21.5481 11.8281 21.4121C11.8161 21.3521 11.8121 21.2481 11.7861 21.2441C11.4551 21.1991 11.5411 21.0191 11.5611 20.8871C11.6031 20.6001 11.3211 20.6861 11.1111 20.6711C10.8571 20.6531 10.6901 20.6801 10.7331 20.9051C10.7821 21.1931 10.3091 21.3941 10.4301 21.7011C10.4341 21.7121 10.3631 21.7321 10.3281 21.7511C10.1751 21.8421 10.0781 22.3851 10.2311 22.4291C10.5331 22.5081 10.4441 22.6581 10.4611 22.7991C10.4671 22.8581 10.4701 22.9621 10.4991 22.9681C10.8191 23.0171 10.7541 23.1921 10.7311 23.3261C10.6761 23.6121 10.9641 23.5311 11.1741 23.5451C11.4251 23.5631 11.5981 23.5431 11.5561 23.3151C11.5021 23.0261 11.9831 22.8231 11.8461 22.5141C11.8461 22.5141 11.8641 22.4951 11.8791 22.4951C12.1961 22.4451 12.0891 22.2691 12.1101 22.1201V22.1201ZM11.5451 22.1781C11.4321 22.2821 11.2131 22.4201 11.2251 22.6321C11.2251 22.6321 11.0411 22.6561 11.0471 22.6071C11.0561 22.4221 10.9001 22.3071 10.7511 22.1691C10.6911 22.1091 10.6691 21.9581 10.9201 21.9211C11.1691 21.8821 10.8251 21.5721 11.1691 21.5861C11.4321 21.6021 11.1461 21.8741 11.3751 21.9211C11.5571 21.9561 11.5631 22.0211 11.5451 22.1781V22.1781ZM12.0401 43.1901C11.7681 43.1321 11.8421 42.9951 11.8211 42.8741C11.7821 42.6181 11.4061 42.4211 11.5371 42.1341C11.5401 42.1261 11.4511 42.0931 11.3971 42.0841C10.9261 42.0031 10.7571 42.0881 10.7311 42.4171C10.7291 42.4741 10.7231 42.5761 10.6861 42.5851C10.3481 42.6471 10.4791 42.8321 10.4581 42.9751C10.4461 43.0331 10.4791 43.1231 10.3871 43.1371C10.0431 43.1931 10.2191 43.3791 10.1651 43.5041C10.2061 43.6241 10.0761 43.8021 10.2421 43.8451C10.5321 43.9221 10.4351 44.0651 10.4581 44.1901C10.4671 44.2521 10.4491 44.3561 10.4811 44.3621C10.8071 44.4371 10.7451 44.6191 10.7281 44.7791C10.7051 45.0381 10.9721 44.9501 11.1421 44.9521C11.3201 44.9521 11.5801 45.0301 11.5561 44.7741C11.5411 44.6601 11.4581 44.4711 11.6201 44.4391C11.8851 44.3801 11.8101 44.2661 11.8221 44.1571C11.8311 44.0331 11.7681 43.8971 12.0411 43.8451C12.1491 43.8261 12.1441 43.2101 12.0401 43.1901V43.1901ZM11.2471 44.0211C11.2471 44.0211 11.1731 44.0451 11.1341 44.0471C11.0421 44.0511 11.0081 44.0121 11.0111 43.9541C11.0171 43.8211 11.0361 43.6921 10.7701 43.6551C10.7381 43.6491 10.6931 43.4691 10.7471 43.4331C10.9131 43.3151 11.0581 43.2051 11.0351 43.0231C11.0291 42.9731 11.1501 42.9861 11.2211 42.9901C11.1861 43.2131 11.4821 43.3391 11.5951 43.5381C11.4541 43.6961 11.1931 43.8111 11.2471 44.0211" fill="#CB0101"/>
<path fill-rule="evenodd" clip-rule="evenodd" d="M9.34503 17.3498C9.34503 17.2598 9.35703 17.1668 9.34203 17.0768C9.31703 16.9308 9.40503 16.8888 9.61103 16.8928C9.79503 16.8948 9.91903 16.9068 9.89803 17.0668C9.88003 17.2168 9.90003 17.3698 9.89203 17.5198C9.88603 17.6488 9.97903 17.8038 9.62103 17.8078C9.27903 17.8118 9.34503 17.6638 9.34503 17.5308V17.3498" fill="#CC0404"/>
<path fill-rule="evenodd" clip-rule="evenodd" d="M4.93553 17.3288C4.93553 17.2278 4.94453 17.1258 4.93253 17.0268C4.91753 16.8568 5.09553 16.8998 5.22853 16.8938C5.36853 16.8898 5.48753 16.8878 5.48153 17.0268C5.46803 17.2079 5.46803 17.3897 5.48153 17.5708C5.49353 17.7218 5.46253 17.8088 5.18553 17.8048C4.90453 17.8028 4.93253 17.6908 4.93553 17.5708V17.3288Z" fill="#CC0202"/>
<path fill-rule="evenodd" clip-rule="evenodd" d="M9.8958 48.2701C9.8958 48.3581 9.8868 48.4511 9.8958 48.5411C9.9188 48.6831 9.8428 48.7291 9.6328 48.7311C9.4028 48.7331 9.3228 48.6841 9.3428 48.5261C9.3608 48.3661 9.3518 48.2041 9.3458 48.0451C9.3348 47.9101 9.3398 47.8191 9.6058 47.8141C9.8928 47.8101 9.9108 47.9131 9.8958 48.0581C9.8868 48.1281 9.8958 48.1981 9.8958 48.2701Z" fill="#CC0404"/>
<path fill-rule="evenodd" clip-rule="evenodd" d="M5.47861 48.2999C5.47861 48.4039 5.47261 48.5029 5.47861 48.6049C5.49061 48.7769 5.30561 48.7229 5.17661 48.7319C5.03361 48.7399 4.92361 48.7319 4.93261 48.5939C4.94461 48.4129 4.93861 48.2339 4.93261 48.0509C4.92961 47.9249 4.91761 47.8249 5.19461 47.8199C5.47861 47.8159 5.49661 47.9149 5.48161 48.0619C5.47261 48.1409 5.47861 48.2219 5.47861 48.2999Z" fill="#CC0202"/>
<path fill-rule="evenodd" clip-rule="evenodd" d="M6.28923 33.632C6.22523 33.459 6.56323 33.35 6.70323 33.186C6.86223 32.991 6.89822 32.617 6.70622 32.44C6.51422 32.266 6.23223 32.105 6.30723 31.831C6.34023 31.722 6.32523 31.636 6.54323 31.643C6.72223 31.651 6.91323 31.629 6.86723 31.825C6.82423 32.017 7.25123 32.042 7.18323 32.245C7.35823 32.221 7.59723 32.391 7.69523 32.132C7.75523 31.98 8.01723 31.896 8.00023 31.691C7.99723 31.616 8.23222 31.656 8.35522 31.648C8.49122 31.642 8.50223 31.704 8.53123 31.781C8.63623 32.079 8.30222 32.244 8.11322 32.445C7.97922 32.586 7.97623 33.038 8.10723 33.176C8.28723 33.369 8.62222 33.513 8.53922 33.807C8.50322 33.933 8.46522 33.987 8.27522 33.979C8.11522 33.971 7.96223 34 7.95323 33.819C7.94723 33.645 7.60622 33.366 7.45022 33.362C7.03822 33.345 7.00222 33.62 6.89822 33.772C6.80722 33.906 6.79323 33.981 6.55123 33.983C6.21323 33.983 6.34623 33.817 6.28923 33.632Z" fill="#CB0101"/>
<path fill-rule="evenodd" clip-rule="evenodd" d="M5.74989 32.7808C5.74989 32.6698 5.75989 32.5588 5.74689 32.4488C5.72589 32.2948 5.82589 32.2598 6.02789 32.2608C6.21789 32.2628 6.33289 32.2818 6.32389 32.4428C6.30739 32.6851 6.30739 32.9284 6.32389 33.1708C6.32989 33.3218 6.23789 33.3598 6.03689 33.3598C5.84889 33.3548 5.72889 33.3358 5.74689 33.1758C5.75989 33.0488 5.74989 32.9138 5.74989 32.7808Z" fill="#CE0F0F"/>
<path fill-rule="evenodd" clip-rule="evenodd" d="M9.06916 32.8111C9.06916 32.9241 9.05716 33.037 9.07316 33.147C9.09016 33.297 9.03016 33.363 8.78516 33.361C8.56316 33.356 8.51316 33.299 8.51616 33.162C8.52816 32.927 8.53116 32.692 8.51616 32.46C8.50916 32.319 8.56916 32.2651 8.78516 32.2631C9.03016 32.2571 9.09016 32.3271 9.07316 32.4771C9.05816 32.5861 9.06916 32.6991 9.06916 32.8111Z" fill="#CC0303"/>
<path fill-rule="evenodd" clip-rule="evenodd" d="M7.14099 31.355C7.14099 31.254 7.14999 31.156 7.13799 31.055C7.12299 30.914 7.25399 30.918 7.39099 30.922C7.52799 30.926 7.69599 30.885 7.68699 31.055C7.67499 31.238 7.67499 31.419 7.68999 31.601C7.69899 31.755 7.66099 31.837 7.39099 31.833C7.10099 31.831 7.13799 31.718 7.13799 31.597C7.14099 31.518 7.13799 31.438 7.14099 31.355V31.355ZM7.68399 34.27C7.68399 34.37 7.67799 34.468 7.68399 34.571C7.69899 34.743 7.52199 34.694 7.39099 34.702C7.24499 34.71 7.12899 34.706 7.13499 34.567C7.14999 34.386 7.14099 34.206 7.13799 34.023C7.13499 33.899 7.11199 33.792 7.39099 33.789C7.66899 33.787 7.70399 33.874 7.68699 34.025C7.67499 34.107 7.68399 34.187 7.68399 34.27Z" fill="#CC0202"/>
</svg>
