<svg width="25" height="25" viewBox="0 0 25 25" fill="none" xmlns="http://www.w3.org/2000/svg">
<path d="M15.8835 16.7813L17.6335 15.0313C17.8692 14.7985 18.1674 14.6392 18.4919 14.5726C18.8164 14.506 19.1533 14.5351 19.4616 14.6563L21.5944 15.5078C21.906 15.6343 22.1731 15.8502 22.3622 16.1282C22.5513 16.4063 22.6538 16.7341 22.6569 17.0703V20.9766C22.6551 21.2053 22.607 21.4313 22.5155 21.641C22.4241 21.8507 22.2911 22.0396 22.1247 22.1966C21.9583 22.3535 21.7618 22.4751 21.5472 22.5541C21.3325 22.6331 21.1041 22.6679 20.8756 22.6563C5.93033 21.7266 2.9147 9.07034 2.34439 4.22659C2.31791 3.98873 2.3421 3.74796 2.41536 3.52012C2.48862 3.29228 2.6093 3.08253 2.76944 2.90467C2.92959 2.72681 3.12557 2.58488 3.34451 2.48821C3.56345 2.39153 3.80037 2.34231 4.0397 2.34378H7.81314C8.14986 2.34478 8.47859 2.44649 8.75704 2.63584C9.03549 2.82518 9.25093 3.0935 9.37564 3.40628L10.2272 5.53909C10.3524 5.84618 10.3843 6.18335 10.319 6.50848C10.2537 6.83361 10.0941 7.13229 9.86001 7.36722L8.11001 9.11722C8.11001 9.11722 9.11783 15.9375 15.8835 16.7813Z" fill="#BEC7DC"/>
</svg>
