<svg width="72" height="60" viewBox="0 0 72 60" fill="none" xmlns="http://www.w3.org/2000/svg">
<path d="M68.7246 2.69097C65.5191 -0.0152415 61.175 -0.694929 58.3016 0.718235C50.1252 4.73917 33.1433 -5.50173 13.7351 10.8838C-5.67297 27.2693 6.45719 41.6064 1.69451 48.5092C0.0206661 50.9352 0.825595 54.6028 4.03102 57.3091C7.23671 60.0156 11.5809 60.6948 14.4546 59.2817C22.6303 55.2609 39.6124 65.5018 59.0204 49.1165C78.4283 32.7311 66.2986 18.3937 71.0611 11.4909C72.735 9.06492 71.9302 5.3973 68.7246 2.69097ZM34.6957 11.194C26.6187 12.8987 16.1224 21.759 14.1028 28.5797C13.8506 29.4316 12.9449 30.0005 11.9498 30.0005C11.7716 30.0005 11.5903 29.9822 11.4095 29.9441C10.2196 29.6929 9.49618 28.675 9.7935 27.6703C12.212 19.5032 23.9293 9.60117 33.6182 7.55601C34.8085 7.30488 36.0142 7.91566 36.3115 8.92031C36.6088 9.92496 35.8855 10.9428 34.6957 11.194Z" fill="#67A319"/>
<path d="M34.6957 11.194C26.6187 12.8987 16.1224 21.759 14.1028 28.5797C13.8506 29.4316 12.9449 30.0005 11.9498 30.0005C11.7716 30.0005 11.5903 29.9822 11.4095 29.9441C10.2196 29.6929 9.49618 28.675 9.7935 27.6703C12.212 19.5032 23.9293 9.60117 33.6182 7.55601C34.8085 7.30488 36.0142 7.91566 36.3115 8.92031C36.6088 9.92496 35.8855 10.9428 34.6957 11.194Z" fill="#67A319"/>
</svg>
