<svg width="22" height="24" viewBox="0 0 22 24" fill="none" xmlns="http://www.w3.org/2000/svg">
<g clip-path="url(#clip0_403_1245)">
<path d="M10.6654 23.9998C8.98128 22.5633 7.42029 20.9885 5.9987 19.2918C3.86537 16.7438 1.33203 12.9491 1.33203 9.33313C1.33111 7.48641 1.87804 5.68093 2.90362 4.14517C3.9292 2.60941 5.38733 1.41241 7.09346 0.705661C8.79959 -0.00108719 10.677 -0.185816 12.4882 0.174853C14.2993 0.535522 15.9628 1.42537 17.268 2.7318C18.137 3.59694 18.8258 4.62585 19.2945 5.75896C19.7633 6.89208 20.0026 8.1069 19.9987 9.33313C19.9987 12.9491 17.4654 16.7438 15.332 19.2918C13.9104 20.9885 12.3494 22.5633 10.6654 23.9998ZM10.6654 5.33313C9.6045 5.33313 8.58708 5.75456 7.83694 6.5047C7.08679 7.25485 6.66537 8.27227 6.66537 9.33313C6.66537 10.394 7.08679 11.4114 7.83694 12.1616C8.58708 12.9117 9.6045 13.3331 10.6654 13.3331C11.7262 13.3331 12.7436 12.9117 13.4938 12.1616C14.2439 11.4114 14.6654 10.394 14.6654 9.33313C14.6654 8.27227 14.2439 7.25485 13.4938 6.5047C12.7436 5.75456 11.7262 5.33313 10.6654 5.33313Z" fill="#FF921A"/>
</g>
<defs>
<clipPath id="clip0_403_1245">
<rect width="21.3333" height="24" fill="white"/>
</clipPath>
</defs>
</svg>
