<svg width="24" height="19" viewBox="0 0 24 19" fill="none" xmlns="http://www.w3.org/2000/svg">
<path d="M22.1677 5.91967V14.514C22.1678 15.3903 21.8326 16.2333 21.2308 16.8702C20.629 17.5072 19.8063 17.8897 18.9314 17.9393L18.7372 17.9446H4.4872C3.61094 17.9446 2.76788 17.6094 2.13095 17.0076C1.49403 16.4058 1.11153 15.5831 1.06192 14.7082L1.05664 14.514V5.91967L11.2449 11.2566C11.3582 11.3159 11.4842 11.3469 11.6122 11.3469C11.7401 11.3469 11.8662 11.3159 11.9795 11.2566L22.1677 5.91967ZM4.4872 1.05566H18.7372C19.5875 1.05556 20.4076 1.37127 21.0383 1.94156C21.6691 2.51184 22.0656 3.29606 22.1509 4.14211L11.6122 9.66267L1.07353 4.14211C1.15536 3.32966 1.5243 2.57304 2.11404 2.00826C2.70378 1.44348 3.47564 1.10758 4.29086 1.06094L4.4872 1.05566H18.7372H4.4872Z" fill="#FF921A"/>
</svg>
