<svg width="24" height="24" viewBox="0 0 24 24" fill="none" xmlns="http://www.w3.org/2000/svg">
<path d="M10.1462 13.7608C11.5378 15.1726 13.2217 16.2625 15.0795 16.9541L17.5928 14.9541C17.6674 14.9028 17.7557 14.8753 17.8462 14.8753C17.9366 14.8753 18.025 14.9028 18.0995 14.9541L22.7662 17.9608C22.9433 18.0673 23.0933 18.2136 23.2042 18.388C23.3152 18.5624 23.384 18.7603 23.4054 18.9659C23.4267 19.1715 23.3999 19.3793 23.3272 19.5728C23.2544 19.7663 23.1377 19.9402 22.9862 20.0808L20.7995 22.2408C20.4864 22.5502 20.1015 22.7773 19.6792 22.9018C19.2569 23.0262 18.8104 23.0442 18.3795 22.9541C14.081 22.0664 10.1189 19.9871 6.94617 16.9541C3.84383 13.891 1.69702 9.99337 0.766175 5.73414C0.674219 5.3099 0.693411 4.86909 0.821892 4.45445C0.950373 4.03981 1.18379 3.66539 1.49951 3.36747L3.76617 1.1808C3.90644 1.03666 4.0775 0.926119 4.26654 0.857455C4.45558 0.78879 4.65771 0.763781 4.85778 0.784302C5.05786 0.804823 5.2507 0.87034 5.42186 0.975949C5.59303 1.08156 5.73809 1.22452 5.84617 1.39414L8.95284 6.0008C9.00643 6.07314 9.03535 6.16078 9.03535 6.2508C9.03535 6.34083 9.00643 6.42847 8.95284 6.5008L6.90617 8.9608C7.61656 10.7814 8.72333 12.4211 10.1462 13.7608Z" fill="#FF921A"/>
</svg>
