<svg width="16" height="15" viewBox="0 0 16 15" fill="none" xmlns="http://www.w3.org/2000/svg">
<path d="M6.68616 8.72362C7.61655 9.60199 8.7423 10.2802 9.98433 10.7105L11.6646 9.46609C11.7144 9.43416 11.7735 9.41707 11.834 9.41707C11.8945 9.41707 11.9535 9.43416 12.0033 9.46609L15.1232 11.3368C15.2417 11.4031 15.3419 11.4941 15.4161 11.6026C15.4903 11.7111 15.5363 11.8342 15.5506 11.9621C15.5648 12.0901 15.5469 12.2193 15.4983 12.3397C15.4497 12.4601 15.3716 12.5683 15.2703 12.6558L13.8084 13.9997C13.5991 14.1923 13.3417 14.3335 13.0594 14.411C12.7771 14.4884 12.4786 14.4996 12.1905 14.4436C9.31677 13.8912 6.66795 12.5975 4.54681 10.7105C2.47275 8.8046 1.0375 6.37958 0.415188 3.72955C0.353711 3.46559 0.366542 3.19133 0.452437 2.93335C0.538333 2.67536 0.69438 2.4424 0.905456 2.25704L2.42083 0.896534C2.5146 0.806851 2.62896 0.738074 2.75535 0.695352C2.88173 0.652629 3.01686 0.63707 3.15062 0.649837C3.28438 0.662605 3.4133 0.703369 3.52774 0.769077C3.64217 0.834786 3.73915 0.923735 3.81141 1.02927L5.88836 3.89546C5.92419 3.94047 5.94352 3.995 5.94352 4.05101C5.94352 4.10702 5.92419 4.16155 5.88836 4.20656L4.52007 5.73713C4.995 6.8699 5.73492 7.89007 6.68616 8.72362Z" fill="black"/>
</svg>
