<svg width="17" height="22" viewBox="0 0 17 22" fill="none" xmlns="http://www.w3.org/2000/svg">
<path d="M8.37813 21.102C6.89741 19.839 5.52492 18.4543 4.275 16.9625C2.39929 14.7222 0.171876 11.3858 0.171876 8.20646C0.171063 6.58275 0.651951 4.99529 1.55368 3.64499C2.45542 2.29468 3.73746 1.24223 5.23756 0.620833C6.73766 -0.000568982 8.38838 -0.16299 9.98082 0.154125C11.5733 0.471239 13.0358 1.25363 14.1835 2.40229C14.9475 3.16297 15.5531 4.06762 15.9653 5.0639C16.3774 6.06018 16.5878 7.12831 16.5844 8.20646C16.5844 11.3858 14.357 14.7222 12.4812 16.9625C11.2313 18.4543 9.85883 19.839 8.37813 21.102ZM8.37813 4.68949C7.44537 4.68949 6.55081 5.06003 5.89126 5.71959C5.2317 6.37915 4.86116 7.2737 4.86116 8.20646C4.86116 9.13922 5.2317 10.0338 5.89126 10.6933C6.55081 11.3529 7.44537 11.7234 8.37813 11.7234C9.31088 11.7234 10.2054 11.3529 10.865 10.6933C11.5246 10.0338 11.8951 9.13922 11.8951 8.20646C11.8951 7.2737 11.5246 6.37915 10.865 5.71959C10.2054 5.06003 9.31088 4.68949 8.37813 4.68949Z" fill="black"/>
</svg>
