<svg width="18" height="14" viewBox="0 0 18 14" fill="none" xmlns="http://www.w3.org/2000/svg">
<path d="M17.1859 4.36183V10.6945C17.1859 11.3402 16.9261 11.9614 16.4596 12.4307C15.9932 12.9 15.3555 13.1818 14.6774 13.2184L14.5268 13.2223H3.48136C2.80215 13.2223 2.14868 12.9753 1.65499 12.5319C1.16129 12.0884 0.86481 11.4822 0.826357 10.8376L0.822266 10.6945V4.36183L8.71936 8.29428C8.80721 8.33802 8.90491 8.36087 9.00408 8.36087C9.10326 8.36087 9.20096 8.33802 9.28881 8.29428L17.1859 4.36183ZM3.48136 0.777832H14.5268C15.1859 0.777757 15.8216 1.01038 16.3105 1.4306C16.7994 1.85081 17.1067 2.42865 17.1728 3.05205L9.00408 7.11983L0.835357 3.05205C0.898785 2.45341 1.18476 1.8959 1.64188 1.47975C2.099 1.06359 2.69728 0.816089 3.32917 0.781721L3.48136 0.777832H14.5268H3.48136Z" fill="black"/>
</svg>
