<svg width="15" height="14" viewBox="0 0 15 14" fill="none" xmlns="http://www.w3.org/2000/svg">
<path d="M14.3837 13.6647C14.2124 13.8361 14.0074 13.9218 13.7685 13.9218C13.5297 13.9218 13.3247 13.8361 13.1534 13.6647L10.4766 10.9853C9.39509 11.7882 8.18737 12.1896 6.85348 12.1896C6.03331 12.1896 5.2492 12.0295 4.50114 11.7092C3.75307 11.389 3.10866 10.9582 2.56789 10.4169C2.02712 9.8756 1.59676 9.23281 1.27681 8.48852C0.956852 7.74424 0.796875 6.95936 0.796875 6.13388C0.796875 5.3084 0.956852 4.52127 1.27681 3.77247C1.59676 3.02368 2.02712 2.38089 2.56789 1.84411C3.10866 1.30732 3.75307 0.878793 4.50114 0.558526C5.2492 0.238259 6.03331 0.078125 6.85348 0.078125C7.67364 0.078125 8.45776 0.238259 9.20582 0.558526C9.95388 0.878793 10.5983 1.30732 11.1391 1.84411C11.6798 2.38089 12.1102 3.02368 12.4301 3.77247C12.7501 4.52127 12.9101 5.30615 12.9101 6.12712C12.9101 7.47134 12.509 8.68023 11.7069 9.7538L14.3837 12.4332C14.5549 12.6046 14.6405 12.8099 14.6405 13.0489C14.6405 13.288 14.5549 13.4933 14.3837 13.6647ZM6.85348 1.81027C6.06936 1.81027 5.34609 2.00198 4.68365 2.3854C4.0212 2.76882 3.49621 3.29433 3.10866 3.96193C2.72111 4.62953 2.52733 5.35351 2.52733 6.13388C2.52733 6.91425 2.72111 7.63824 3.10866 8.30583C3.49621 8.97343 4.0212 9.49894 4.68365 9.88236C5.34609 10.2658 6.06936 10.4575 6.85348 10.4575C7.63759 10.4575 8.36087 10.2658 9.02331 9.88236C9.68575 9.49894 10.2107 8.97343 10.5983 8.30583C10.9858 7.63824 11.1796 6.91425 11.1796 6.13388C11.1796 5.35351 10.9858 4.62953 10.5983 3.96193C10.2107 3.29433 9.68575 2.76882 9.02331 2.3854C8.36087 2.00198 7.63759 1.81027 6.85348 1.81027Z" fill="white"/>
</svg>
